<svg viewBox="0 0 800 200" version="1.1" xmlns="http://www.w3.org/2000/svg">
  
  <g>
    <g id="Capa_1">
      <g>
        <path d="M726.65,178.39c-2.16,1.48-4.24,2.55-6.95,2.43-3.7-.17-7.53.92-11.03-1.02-.37-.21-.99-.02-1.5-.04-2.46-.11-4.99.46-7.29-1.02-.68-.44-1.97-.11-2.97-.05-2,.12-4.29-.25-5.92.57-2.23,1.12-3.64-.77-5.58-.42-1.96.35-4.03.16-6.05.2-2.02.04-4.04.13-6.06.12-2.22,0-4.57.63-6.52-.91-7.05.17-14.09.34-21.14.52-1.54,1.29-2.96,1.18-4.73.23-.95-.51-2.45-.17-3.7-.14-5.56.11-11.12.34-16.67.32-3.44-.02-6.99.92-10.32-.9-.93-.51-2.48-.05-3.74-.02-7.83.17-15.66.45-23.49.47-4.19,0-8.54,1.15-12.55-.9-2.53.05-5.05.1-7.58.15-4.04.07-8.09.21-12.13.18-2.95-.03-5.64-1.5-8.75-1.1-2.74.35-5.55.04-8.33.2-2.3.13-3.99-1.76-6.49-1.22-1.93.42-4.02.15-6.05.18-2.27.03-4.57-.15-6.81.14-2.39.31-4.03-1.7-6.5-1.22-2.2.42-4.53.21-6.81.27-1.25.03-2.47.04-3.59.82-.52.36-1.65.63-2.03.36-2.29-1.61-4.87-.79-7.32-.8-2.21,0-4.59-.41-6.47,1.28-4.45-.16-8.97,1.4-13.36-.42-.86-.36-1.94-.27-2.93-.35-2.21-.17-4.39.21-6.58-.93-1.31-.68-3.32-.39-5.05.44-2.79,1.34-5.94,1.33-8.72.39-1.77-.6-3.4-.62-5.12-.58-11.37.25-22.74.62-34.1.78-3.7.05-7.55.93-11.04-.97-3.79.05-7.58.18-11.37.13-2.7-.04-5.43.64-8.07-.88-1.09-.63-2.95-.13-4.46-.09-8.59.22-17.18.5-25.76.66-2.46.05-4.96.48-7.35-.8-.96-.51-2.43-.29-3.67-.26-9.85.2-19.7.47-29.56.61-2.69.04-5.5.78-8.04-.91-.67-.45-1.96-.06-2.96-.11-3.19-.18-6.48.7-9.56-.98-.92-.5-2.47-.03-3.74,0-13.64.31-27.28.66-40.92.91-2.7.05-5.51.8-8.07-.87-.68-.44-1.96-.06-2.96-.13-5.96-.38-12.05,1.5-17.91-.63-1.28.75-2.63,1.11-4.18,1.12-4.29.03-8.59.25-12.88.31-1.97.03-3.93.33-5.84-.77-.92-.53-2.43-.23-3.68-.22-3.54.03-7.08.23-10.61.14-2.94-.08-5.98.83-8.81-.91-.87-.53-2.46-.08-3.72-.05-19.2.51-38.4,1.03-57.59,1.52-5.3.14-10.62.04-15.91.35-2.83.17-5.11-1.61-8.01-1.21-2.41.33-4.91.38-7.3-.94-1.04-.57-3.15-.29-4.32.35-1.68.92-3.37,1.16-5.07,1-2.22-.21-4.22,1.37-6.3.78-2.25-.63-4.47-.23-6.7-.33-1.03-.04-2.04-.15-2.28-1.3-.19-.92-.29-1.88.49-2.67,1.04-1.05,2.12-2.05,3.14-3.11,2.23-2.32,3.71-4.9,3.84-8.13.09-2.24,1.5-3.29,3.89-3.42,2.02-.1,4.06.03,6.06-.24,3.02-.4,5.42.27,7.27,2.59.98,1.23,2.44,1.53,4.05,1.31,3.18-.43,6.56.67,9.57-1.24.63-.4,1.42-.42,2.09.07,1.78,1.3,3.88.72,5.83.68,12.63-.25,25.26-.59,37.89-.86,1.96-.04,3.93-.45,5.84.73.89.55,2.41.32,3.65.3,5.05-.09,10.11-.37,15.16-.33,2.94.02,5.99-.78,8.82.94.88.54,2.45.1,3.71.08,5.31-.1,10.62,0,15.91-.4,2.62-.2,5.08,1.43,7.68.21,5.64,1.83,11.44.29,17.16.46,4.2-2.35,8.83-1.39,13.27-1.56,11.11-.44,22.23-.64,33.34-.91,1.98-.05,3.97-.34,5.82.85.66.42,2.21.4,2.84-.05,1.82-1.31,3.81-1.12,5.79-1.17,11.37-.33,22.74-.68,34.1-.9,2.44-.05,4.93-.55,7.35.78,1.12.62,2.94.2,4.44.17,8.08-.16,16.17-.41,24.25-.49,3.2-.03,6.45-.75,9.58.87,1.15.59,2.97.1,4.49.06,10.61-.26,21.22-.58,31.83-.77,2.45-.04,5-.66,7.32.87.68.45,1.95.18,2.94.17,3.03-.04,6.07-.21,9.09-.15,3.19.07,6.39-.67,9.58.88,1.58.77,3.96.11,5.99.09,1.52-.01,3.03-.04,4.55-.07,1.77-.03,3.74-.52,5.25.04,1.44.54,2.58.31,3.91.23.59-.04,1.08.38,1.93.11,3.11-1.01,6.27-1.34,9.45-.07,1.07.43,2.43.32,3.67.31,5.31-.06,10.61-.2,15.92-.25,2.22-.02,4.45-.44,6.59.82.91.53,2.44.2,3.69.18,8.34-.19,16.67-.49,25.01-.57,3.19-.03,6.55-.92,9.54,1,.51.33,1.48.02,2.24.06,3.44.18,6.91-.52,10.33.94,1.65.71,3.98.08,6,.03,18.95-.47,37.89-.99,56.84-1.4,3.23-.07,6.7-1.08,9.66.35,2.8,1.35,6.04-.32,8.69,1.59.8.58,2.42.2,3.67.18,3.28-.04,6.57-.13,9.85-.18,1.49-.02,2.95-.18,4.35.69.72.45,2.22.7,2.81.31,2.53-1.7,5.32-1.2,8.02-1.33,3.53-.16,7.08-.33,10.61-.28,3.19.05,6.48-.92,9.58.84.91.52,2.47.04,3.73.01,9.85-.24,19.7-.51,29.56-.71,2.46-.05,5-.63,7.3.92.69.47,1.94.31,2.93.28,4.55-.13,9.1-.22,13.64-.53,1.41-.1,2.78-1.09,4.18-1.17,1.13-.06,2.33,1.03,3.44.94,3.94-.33,8.05,1.07,11.83-1.14.24-.14.87.11,1.2.33,1.78,1.19,2.22,5.22.33,6.04-2.44,1.05-2.11,3.69-4.15,4.84-.58.33-.65,1.69-.7,2.59-.09,1.63,0,3.27.03,4.83ZM249.17,168.05c1.91.71,2.34,1.03,2.78,1.02,4.96-.08,9.92-.19,14.88-.35.49-.02,1.41.02,1-1.17-5.62.15-11.25.3-18.66.5ZM160.34,162.5c-4.48-.92-11.15-.8-17.47.31,4.01.97,10.67.86,17.47-.31ZM496.57,162.9c3.11,1.23,6.51,1,9.91.88.48-.02,1.43.01.91-1.17-3.59.1-7.2.19-10.82.29ZM79.1,167.36c3.99.8,6.67.61,9,1.73.63.3,1.44-.61,1.19-1.3-.14-.39-.42-1.02-.69-1.04-2.65-.18-5.32-.36-9.51.61ZM60.51,162.5c-.13-.18-.38-.53-.4-.52-.6.31-1.24.59-1.72,1.03-.23.21-.14.72-.19,1.09.47.05.99.24,1.4.11.8-.26.95-.97.91-1.7ZM406.8,172.02c.28-.24.56-.48.83-.71-.44-.14-.89-.41-1.32-.38-.3.02-.58.45-.87.7.45.13.9.26,1.35.39ZM697.79,174.24c.43-.2.85-.4,1.28-.61-.42-.19-.84-.54-1.27-.54-.43,0-.86.36-1.29.56.43.19.85.39,1.28.58Z"></path>
        <g>
          <path d="M661.32,52.79c.82-.91.74-2.18,1.23-3.2.64-1.33-.66-2.38-.32-3.69.21-.79.04-1.76-.22-2.57-.78-2.44-.87-5.09-2.12-7.39,0-1.9-1.25-2.8-2.75-3.6-1.15-.61-2.32-1.16-3.29-2.11-.82-.8-5.01-2.51-5.92-2.42-2.7.27-5.05-1.47-7.73-1.22-.23.02-.51-.27-.74-.46-.39-.33-.89-.38-1.21-.11-.91.76-1.95.56-2.96.54-3.25-.05-6.5-.13-9.76-.2v.02c-2.36-.05-4.73-.15-7.09-.13-1.88.02-3.75-.35-5.65.4-1.94.76-4.08.13-6.13.3-1.13.96-2.51.71-3.81.73-.81.02-1.35.5-2,.8-1.3.59-1.45.65-.77,1.8.74,1.25.5,2.1-.42,3.14-1.35,1.52-2.25,3.33-2.87,5.28-.65,2.05-1.41,4.05-2.51,5.93-1.09,1.87-2.2,3.77-2.96,5.79-.86,2.28-1.37,4.7-2.79,6.75-.34,2.68-2.1,4.72-3.16,7.08-.3.67-.52,1.33-.76,2.01-.68,1.89-1.3,3.79-1.97,5.68-.72,2.02-2,3.84-3.03,5.76-.62,1.15-1.32,2.27-1.79,3.47-.67,1.73-1.63,3.41-1.54,5.36.09,1.96-.81,3.65-1.54,5.35-1.79,4.13-4.46,7.77-6.75,11.62-.81,1.37-1.54,2.78-2.35,4.14-.62,1.05-.79,2.24-.16,3.32.84,1.46.65,2.7-.2,4.11-.89,1.49-1.48,3.15-2.87,4.33-1.03.87-1.59,2.15-1.88,3.37-.32,1.34-.94,2.5-1.75,3.45-1.16,1.37-1.68,3.05-2.7,4.47-1.02,1.42-1.14,3.24-2.07,4.74-.64,1.05.09,2.1,1.24,2.15.44.02.89,0,1.33.02,4.14.09,8.28.18,12.42.29.73.02,1.63-.14,2.15.21,1.35.92,2.84.62,4.27.8,1.03.13,1.91-.42,2.16-1.22.77-2.47,3.49-4.04,3.15-7-.03-.22.35-.47.48-.73.78-1.55,1.38-3.21,2.35-4.63,1.08-1.58,1.33-3.56,2.47-5.01,1.12-1.43,1.33-3.17,2.17-4.68,2.12-3.79,4.16-7.62,6.21-11.45.68-1.27,1.67-2.54,1.83-3.89.22-1.82,1.83-2.59,2.39-4.08.1-.26,1.23-.45,1.58-.22,1.99,1.33,3.42,3.16,4.1,5.49.77,2.61,1.71,5.19,2.4,7.8.69,2.62,2.07,5.12,1.8,7.99-.05.49.53,1.01.7,1.56.8,2.47,2.5,4.58,2.87,7.22,1.38,2.07,1.72,4.56,2.76,6.79,1.3,2.78,3.7,3.52,6.16,4.22,1.38.39,2.96.34,4.41.16,1.72-.22,3.08.75,4.65.99,1.71.26,3.56-.35,5.13.88.2.15.84-.11,1.18-.34.48-.32.89-.77,1.3-1.2.63-.66.61-1.13-.03-1.9-.84-1-1.83-1.84-2.27-3.19-.44-1.35-1.1-2.63-1.56-4-.43-1.29-.72-2.5-.68-3.8.04-1.2-1.02-2.08-.83-3.35.17-1.16.1-2.36.06-3.54-.02-.56-.22-1.12-.37-1.67-.52-1.8-1.57-3.48-1.94-5.24-.38-1.83-.86-3.63-1.36-5.43-.11-.41-.46-.85-.39-1.21.42-2.25-1.25-4.21-.83-6.44.05-.27-.04-.58-.14-.85-.45-1.21-1.01-2.39-1.37-3.63-.36-1.23.2-2.69-.91-3.75.02-1.32-.18-2.56-.82-3.79-.44-.84.42-2.16,1.35-2.44.28-.08.59-.17.86-.11,1.69.36,3-.92,4.67-.98,1.48-.05,3.03-.94,4.36-1.76,1.77-1.08,3.74-1.58,5.64-2.18,1.4-.44,2.66-1.16,4.02-1.54,1.44-.4,2.6-1.12,3.85-1.86,3.85-2.25,6.24-5.46,7.67-9.65.64-1.87,1.19-3.84,2.37-5.54.56-.81,1.2-1.85,1.14-2.75-.11-1.6,1.31-2.65,1.13-4.17ZM559.54,134.08c-.41.06-.85.04-1.26-.04-.21-.05-.37-.31-.56-.47.23-.13.46-.28.7-.39.12-.05.28-.02.42-.02.27.05.55.07.81.15.12.04.32.24.31.25-.12.19-.26.49-.43.51ZM564.56,130.27c-.29.28-.48.27-.62-.11-.04-.12-.05-.25-.06-.38-.01-.74.49-.89,1.07-.83.17.02.32.28.57.53-.34.28-.68.51-.97.8ZM630.29,126.29c.02.06-.19.19-.3.29-.08-.11-.28-.26-.25-.33.19-.44.42-.42.54.04ZM628.58,115.4c.09.26.26.53.25.79-.01.19-.27.37-.46.61-.12-.41-.28-.69-.25-.94.02-.16.3-.3.46-.45ZM614.91,43.2c.37-.15.75-.26,1.06.18-.11.16-.27.48-.35.47-.35-.08-.68-.26-1.02-.4.1-.08.19-.2.31-.25ZM625.87,131.5c-1.26.66-2.53.3-3.77.28-.11,0-.32-.22-.3-.26.08-.2.25-.53.35-.52,1.22.15,2.54-.42,3.73.49ZM635.97,56.9c.93,2.03-.09,3.73-1.23,5.21-1.07,1.39-2.39,2.66-3.82,3.67-1.13.81-2.42,1.59-4.01,1.42-1.17-.12-2.37-.11-3.54-.05-1.58.08-3.24-.45-4.7.67-.29.22-.86.08-1.3.08-2.18.02-4.36-.25-6.47.67-.8.35-1.32-.25-1.4-1.17-.14-1.52.19-2.91,1.02-4.16.66-1,1.21-2.06.94-3.27-.29-1.32.99-2.1.94-3.31-.04-.83.65-1.26,1.04-1.86.78-1.21,1.48-2.47,2.17-3.74.55-1.01.89-2.17,1.58-3.07.59-.77,1.87-.76,2.48-1.68.84-1.27,2.1-1.49,3.5-1.29,1.35-.14,2.52.53,3.77.8,1.29.28,2.3,1.39,3.71,1.16,1.22.92,3.12,1.06,3.41,3.09.07.5.64.99,1.09,1.36,1.47,1.24,1.61,2.72.84,4.33-.21.44-.19.71,0,1.13Z"></path>
          <path d="M394.14,88.48c.3-2.54,1.92-4.51,3.07-6.64,1.24-2.3,1.79-4.87,3.18-7.09,1.07-1.71,1.75-3.62,2.3-5.56.91-3.21,2.39-6.19,4.11-9,3.25-5.32,5.57-9.61,8.01-15.3.68-1.58,1.78-2.98,2.03-4.75,2.11-2.41,3.23-5.48,5.32-7.91.66-.77,1.16-1.66,1.7-2.52.31-.5-.12-1.27-.72-1.32-1.03-.08-2.33.23-3.02-.28-1.26-.93-2.13-.42-3.22.04-.36.15-1.04.14-1.27-.1-1.26-1.27-3.3-.19-4.49-1.55-1.64-.16-3-.96-4.39-1.77-.95-.55-1.92-.28-2.77.57-.62.62-1.01,1.39-1.48,2.12-2.45,3.8-3.49,8.2-5.33,12.25-.82,1.8-1.85,3.57-2.28,5.57-.17.81-.78,1.54-1.23,2.29-1.18,1.99-2.01,4.14-2.83,6.29-.41,1.08-.74,2.1-1.45,3.09-1.33,1.89-2.28,4.06-4.07,5.63-1.89,3.43-3.8,6.84-6.51,9.72-.53,2.02-2.21,3.36-3.05,5.22-.88,1.96-1.67,3.96-2.57,5.91-.3.64-.35,1.4-.95,1.9-1.86,1.55-2.56,3.83-3.69,5.85.16,1.29-.82,2.16-1.31,3.17-1.26,2.59-2.5,5.23-4.33,7.48-1.93,2.36-2.93,5.39-5.36,7.39-.28,1.33-1.34,1.76-2.43,2.28-1.02.49-1.82,1.26-3.02,1.63-1.21.36-2.55.48-3.7,1.12-1.22.67-2.6.25-3.9.37-.15.01-.33-.05-.44,0-2.35,1.29-4.89.59-7.35.66-1.85.06-3.39-.7-4.73-1.92-.83-.75-.95-1.23-.27-2.5.87-1.62.89-3.67,2.57-4.93.3-.22.35-1.25.1-1.63-.64-.96-1-1.79-.03-2.71.15-1.94,1.64-3.37,2.07-5.18.44-1.89,1.39-3.54,2.5-5,1.08-1.42,2-2.92,2.57-4.51,1.14-3.14,2.89-5.95,4.29-8.95.67-1.43,1.84-2.64,1.85-4.35,1.39-1.73,1.66-3.97,2.72-5.87.91-1.63,2.54-2.82,2.81-4.84.27-1.95,2.27-2.98,2.72-4.86,2.2-2.36,3.16-5.49,5.07-8.07,1.69-2.3,3.07-4.96,3.98-7.66.75-2.24,2.02-4.14,3-6.21,1.05-2.22,2.09-4.49,4.04-6.16.41-.35.56-1,.84-1.5.37-.66-.13-1.93-.85-1.96-1.16-.04-2.45-.23-3.47.18-1,.41-1.96.68-2.96.53-1.27-.18-2.15.86-3.36.82-2.07-.07-4.14-.04-6.2-.11-.4-.01-.84-.23-1.17-.48-.57-.43-.91-1.2-1.73-1.24-1.25-.06-.86,1.37-1.61,1.82-1.17.71-1.26,1.88-1.21,3.11.03.73-.19,1.38-.53,2.08-2.05,4.16-4.45,8.1-7.04,11.94-.72,1.08-1.26,2.23-1.75,3.45-1.12,2.81-2.35,5.57-4.53,7.85-1.37,1.44-2.49,3.33-2.64,5.34-.18,2.35-1.03,4.16-2.65,5.77-1.55,1.55-2.65,3.45-3.69,5.35-.76,1.4-1.53,2.75-2.46,4.06-1.66,2.35-3.68,4.47-4.89,7.13-1.13.78-1.28,1.94-1.15,3.15.32,3.18-.9,5.96-2.22,8.72-.13.26-.45.47-.48.73-.3,2.3-1.79,3.85-3.12,5.6-1.16,1.53-2.94,2.92-2.68,5.29.05.47-.53,1-.78,1.51-.97,1.94-1.92,3.88-2.89,5.81-.26.52-.72.99-.8,1.52-.17,1.16-.34,2.23-.89,3.34-.49.97.02,2.35-.94,3.29-.08,1.61-.43,3.27-.17,4.83.23,1.37.82,2.9,2.29,3.54.86.37,1.48.95,2.08,1.58.74.78,1.67,1,2.62,1.39,2.58,1.07,5.13,1.99,7.96,1.88.29-.01.67-.1.87.04,1.87,1.23,3.98.72,6,.88,1.32.1,2.85-.22,3.92.34,1.43.74,2.82.66,4.26.74,1.18.07,2.36.06,3.55.08v-.04c2.36.05,4.73.1,7.09.15,2.04-1.21,4.29-.71,6.45-.69,1.49.02,2.84-.42,4.25-.68,1.04-.19,1.81-.96,2.88-.93,1.18.04,2.44.24,3.51-.11,1.2-.39,1.99-1.7,3.35-2,.13-.03.23-.19.37-.24,2.2-.77,3.41-2.69,4.93-4.25,1.11-3.01,3.36-5.38,4.71-8.26,2.14-4.59,5.12-8.71,7.4-13.22.26-.51.76-.89,1.08-1.38,1.49-2.28,3.2-4.41,4-7.13.3-1.03.17-2.3,1.28-3.18.87-.69,1.24-2,2.09-2.74,1.62-1.41,2.1-3.47,3.27-5.12ZM400.22,40.47c.11.21.3.41.32.63.04.34.01.77-.5.67-.12-.02-.25-.45-.22-.67.03-.22.26-.42.39-.62ZM346.61,65.01c.36.09.7.25,1.05.39-.22.13-.44.26-.66.39-.24-.1-.47-.19-.7-.29.1-.17.25-.5.31-.49ZM324.03,83.65c-.15.21-.33.15-.45-.17-.01-.04.15-.18.26-.22.05-.02.15.08.22.12,0,.09.02.2-.03.27ZM388.02,65.47c-.16-.16-.28-.48-.25-.7.04-.23.28-.42.43-.63.13.22.32.42.37.66.09.48-.31.91-.55.67Z"></path>
          <path d="M226.74,41.91c1.04-.07,1.95.32,2.87.67.88-.79,1.94-.52,2.95-.52,1.33,0,2.66.07,3.99.05,1.31-.02,2.12-.83,2.24-2.18.09-1.01-.24-2.1.47-2.99.75-.94.58-2.18,1.28-3.21,1.13-1.66,1.98-3.52,2.82-5.36.35-.76.19-1.7.94-2.38,1.33-1.2,1.71-3,2.67-4.46.39-.59-.25-1.93-.98-2.13-.56-.15-1.14-.22-1.72-.24-1.18-.05-2.36-.05-3.55-.06-1.33-.02-2.68.1-3.98-.08-1.28-.18-2.15.94-3.36.81-2.23-.24-4.21.97-6.38,1.09-1.04.81-2.27.41-3.42.49-1.16.08-2.03,1.11-3.34.86-1.15-.21-2.36-.07-3.54-.1-1.18-.02-2.37-.11-3.55-.07-1.15.04-2.36-.32-3.43.44-1.27.9-2.01-.86-3.26-.63-1.4.26-2.91-.27-4.27.67-.4.28-1.15.07-1.74.06-2.51-.02-5.02-.05-7.54-.07-1.01,0-2.05-.22-2.93.59-.31.29-.86.27-1.19-.1-.85-.96-2.31-.34-3.19-1.31-.46-.51-1.08-.21-1.55.21-.56.51-1.13,1.07-.59,1.86.84,1.22.73,2.39.19,3.71-1.63,3.97-3.34,7.91-5,11.87-.74,1.76-1.67,3.37-3.12,4.67-.64.57-1.17,1.3-1.64,2.03-.62.96-1.42,1.88-.25,3.12.46.49.19,1.34-.21,2.05-1.14,2.01-2.55,3.96-3.19,6.13-.61,2.1-1.9,3.85-2.4,6-.48,2.06-.92,4.23-2.27,6.02-.16.21-.12.56-.17.84-.54,3.14-1.82,6.03-3.07,8.92-.69,1.58-1.62,3.12-1.63,4.87,0,1.65-.74,3.1-.93,4.64-.23,1.84-1.17,3.26-1.97,4.77-1.68,3.19-2.71,6.68-4.61,9.76-.05,1.83-1.55,3.07-1.93,4.78-.41,1.87-1.64,3.36-2.4,5.07-.52,1.18-1.46,2.2-1.39,3.61-1.52,2.62-1.7,5.81-3.61,8.26-.11,1.16-1.27,1.58-1.75,2.48-.49.93.12,2.64,1.14,2.97,1.21.4,2.61-.04,3.71.83,3.01-1.39,6.45.44,9.41-1.26,5.17.11,10.34.22,15.51.34.15,0,.34-.05.44.02,1.83,1.41,3.98.74,5.99.87,2.8.18,5.62.08,8.42.26,2.74.18,5.6-.54,8.21.93.19.11.62,0,.81-.17.77-.64,1.66-.5,2.53-.48,2.51.04,5.02.09,7.53.13,1.47.02,2.4-.42,2.56-1.79.15-1.26.97-2.09,1.33-3.2.39-1.21,1.28-2.21,1.64-3.51.38-1.36,1.38-2.57,1.69-3.93.34-1.49,1.3-2.6,1.8-3.92.45-1.18,1.8-1.72,1.88-2.88.08-1.27.68-2.33,1.31-3.17.92-1.25-.21-1.89-.45-2.7-.22-.74-1.34-.64-1.92-.23-.79.56-1.6.64-2.49.66-1.3.02-2.61-.23-3.85.61-.55.38-1.43.23-2.06-.28-.68-.55-1.29-.44-2,0-.32.2-.96.31-1.19.13-.9-.72-1.92-.67-2.94-.7-1.92-.06-3.84-.15-5.76-.15-2.02,0-4.09-.37-6,.66-.76-.36-1.37-.59-2.32-.11-.83.42-2.2-.21-3.02.21-2,1.04-4.02.55-6.05.57-.51,0-.81-.26-.93-.73-.23-.93-.89-1.44-1.65-1.93-.9-.58-1.33-1.49-.81-2.05.98-1.06.64-2.52,1.46-3.63.75-1.02.06-2.55,1.12-3.7.85-.92,1.42-2.22,1.75-3.45.31-1.16.55-2.24,1.54-3.03.5-.4.55-1.02.53-1.61-.03-.93.37-1.62.91-2.38.96-1.36,1.82-2.66,3.78-2.14,1.01-.73,2.17-.96,3.34-.75,1.27.22,2.14-.95,3.35-.79,2.51.33,4.84-1.05,7.34-.78,1.17-.7,2.49-1.02,3.78-.75,1.41.29,2.66-1.03,4.04-.23.9-.96,1.49.39,2.33.32,1.05-.1,2.17-.66,2.33-1.62.16-.99.2-1.94.65-2.94,1.39-3.11,1.75-6.67,4.07-9.4-.12-1.26.59-2.33,1.21-3.2.72-1.02.4-2.33,1.27-3.21.5-.51.31-1.07-.08-1.57-.48-.6-1.06-1.12-1.87-.89-1.38.38-2.77.78-4.08,1.35-.92.4-2.09.01-2.83.98-.69.9-1.69,1.05-2.77,1.02-2.51-.08-5.02-.11-7.53-.17,0-.01,0-.03,0-.04-1.18-.02-2.36-.05-3.55-.07-1.48-.03-2.95-.05-4.43-.09-.58-.01-1.12-.76-.81-1.21.99-1.45,1.1-3.27,2.05-4.74.86-1.33,1.35-2.84,1.93-4.32.63-1.61,1.69-3.04,1.59-4.88.84-1.04.94-2.91,3.04-2.5.5.09,1.08-.35,1.64-.47.56-.12,1.32-.41,1.68-.17,1.61,1.08,3.4.78,5.13.84,2.36.1,4.73.08,7.09.11,2.19-1.26,4.59-.55,6.89-.71.28-.02.63-.04.83-.2,1.04-.85,2.25-.46,3.4-.55ZM241.78,21.92c.48-.04.76.19.84.65.1.64-.33,1.06-.96.92-.43-.09-.73-.34-.64-.85,0-.52.32-.68.76-.72ZM146.77,127.72c-.09-.23-.27-.48-.23-.7.03-.22.27-.41.49-.72.11.43.24.79.27,1.15,0,.07-.34.18-.53.27ZM150.74,116.4c-.08-.05-.16-.1-.25-.15.1-.13.19-.26.29-.4.08.1.23.2.22.29,0,.09-.17.17-.26.25ZM206.67,110.85c.06-.02.16.07.24.11v.26c-.18-.05-.35-.1-.52-.16.09-.07.18-.18.29-.21ZM205.52,126.76c.12.02.21.19.31.3-.11.09-.23.19-.34.28-.09-.1-.26-.22-.25-.3.02-.11.2-.29.28-.27ZM187.25,110.41c.07-.02.2.17.3.27-.13.11-.28.3-.34.27-.43-.19-.41-.41.04-.54ZM174.31,126.91c.12.03.21.17.31.26-.14.16-.27.44-.43.47-.4.05-.83.03-1.23-.04-.21-.04-.38-.27-.57-.42.23-.12.46-.26.71-.35.12-.04.27,0,.53,0,.14.02.42.02.68.08ZM214.96,61.32c.11.36.27.63.24.88-.02.17-.3.31-.46.46-.09-.26-.27-.53-.24-.78.02-.19.28-.36.47-.57ZM201.5,63.7c.37-.13.75-.28,1.02.18.04.07.03.25,0,.26-.23.09-.47.16-.71.23-.2-.14-.4-.27-.61-.41.1-.09.18-.22.3-.26Z"></path>
          <path d="M736.11,47.05c-.79-1.26-.84-2.52-.66-3.8.33-2.31-.38-4.26-1.52-6.22-.45-.78-.79-1.66-1.59-1.96-.9-.34-1.47-.97-2.05-1.6-.93-1-2.14-1.67-3.32-2.02-.99-.29-1.9-.7-2.79-1.14-2.79-1.38-5.67-2.19-8.83-1.96-.96.07-1.69.35-2.35,1-.42.42-.85.83-1.3,1.21-.51.43-1.03.39-1.6.03-.35-.23-.97-.56-1.16-.42-1.19.86-2.55.76-3.83.61-1.3-.15-2.33.44-3.3.99-1.63.93-3.12,2.12-4.64,3.24-.71.52-1.27,1.3-2.03,1.69-3.03,1.54-5.62,3.64-7.97,6.07-.31.32-.66.8-1.01.82-1.4.07-1.25,1.49-2,2.13-.77.65-1.53,1.43-1.98,2.32-.8,1.56-1.76,3-2.81,4.38-1.85,2.41-2.88,5.41-5.29,7.41-2.05,3.49-4.86,6.54-6.24,10.39-.84,2.33-2.11,4.41-3.1,6.64-1.1,2.49-2.11,5.02-3.11,7.56-1.21,3.07-2.18,6.22-3.43,9.28-.64,1.55-1.34,3.2-1.34,4.98-1.16,1.74-.51,3.72-.77,5.58-.08.58.15,1.3-.12,1.75-1.26,2.18-.72,4.58-.98,6.88-.08.72-.03,1.42-.49,2.09-1,1.49-.01,3.46-1.11,4.96.64.97.9,2.13,1.78,3,.59.58.98,1.46,1.23,2.27.23.74.59,1.32,1.1,1.86,1.74,1.81,3.46,3.64,5.22,5.43,1.46,1.49,3.37,2.43,5.25,2.95,2.63.73,5.32,1.65,7.99,1.15,1.5.03,2.85-.05,4.16.12,1.4.18,2.43-.83,3.8-.86,2.77-.06,5.3-1.07,7.67-2.59.73-.47,1.53-.83,2.23-1.33.71-.52,1.3-1.22,2.02-1.73,3.75-2.67,4.08-3.01,7.19-6.89.73-.92,1.69-1.65,2.46-2.55.75-.88,1.28-1.95,2.08-2.77,2.66-2.71,5.62-5.14,7.3-8.67.12-.25.38-.45.6-.64,1.85-1.52,3-3.53,4.04-5.63.38-.77.83-1.55,1.42-2.17.66-.69,1.1-1.38.93-2.34-.32-1.83,1.27-3.23,1.11-5.07-.05-.62.55-1.3.83-1.96.62-1.45,1.42-2.86,1.79-4.38.41-1.67,1.41-3.22,1.14-5.06-.04-.26.09-.57.2-.83,1.8-4.06,2.75-8.44,4.75-12.42,1.24-2.46,1.54-5.21,2.5-7.76-.26-1.53.56-2.8.98-4.17.46-1.51,1.26-2.95.99-4.63-.07-.43-.13-1.04.1-1.3,1.25-1.39.56-2.82-.14-3.94ZM668.01,131.96c-.8,0-1.19-.62-1.6-1.18-.04-.05.03-.19.06-.29.12-.07.23-.18.35-.19.8-.07,1.26.45,1.69,1.02.08.11.15.24.22.36-.24.1-.48.29-.71.29ZM695.61,59.24c.06-.02.16.08.24.13,0,.08-.02.17-.03.25-.16-.06-.33-.11-.49-.17.09-.07.17-.18.28-.21ZM685.17,48.37c.06-.02.15.08.23.12,0,.09-.02.17-.02.26-.16-.06-.32-.11-.49-.17.09-.08.17-.18.28-.22ZM705.5,88.13s-.19-.19-.19-.31c-.05-.59.2-.96.79-1.03-.01.37,0,.75-.08,1.11-.02.11-.33.19-.52.23ZM706.2,86.68c.04-.5.27-.8.82-.79-.03.53-.31.78-.82.79ZM707.08,85.83c.01-.71-.25-1.56.87-1.67-.02.7.27,1.56-.87,1.67ZM708.01,84.07c.03-.68-.19-1.5.84-1.65-.05.67.25,1.52-.84,1.65ZM709.53,82.02c-.18.1-.37.17-.56.24.04-.3.07-.61.54-.53.03,0,.06.27.02.29ZM714.46,52.99c-.79.88-1.43,1.82-1.91,2.9-.41.92-1.23,1.79-1.27,2.71-.08,1.92-1.46,3.53-1.14,5.52.11.71-.1,1.48-.05,2.21.35,4.52-1.41,8.49-3.29,12.39-1.44,2.99-3.07,5.89-4.66,8.8-1.04,1.91-2.1,3.87-3.77,5.28-3.06,2.59-5.22,5.91-7.4,9.15-2.28,3.39-5.39,5.72-8.67,7.88-1.13.74-2.71.91-4.12,1.12-1.56.24-2.59-.69-2.62-2.21-.03-1.47.05-2.95.09-4.84-.62-3.51,1.02-6.98,2.31-10.49,1.66-4.54,2.62-6.01,6.88-11.91,2.62-3.63,5.23-7.27,7.76-10.96,1.14-1.67,2.14-3.43,3.26-5.12.95-1.44,1.62-3.07,2.95-4.26.22-.2.51-.41.57-.66.62-2.52,2.6-4.18,4.08-6.08,1.87-2.4,3.57-5.02,6.03-6.95.81-.63,1.26-.72,1.9-.08,1.05,1.04,2.09,2.09,3.09,3.17.56.6.6,1.74-.01,2.42ZM718.14,48.62c-.09,0-.2.01-.26-.04-.2-.16-.14-.34.18-.47.03-.01.18.16.21.27.02.06-.08.16-.13.24ZM729.11,63.86c-.08-.47.22-.51.53-.53-.08.19-.15.38-.25.56-.02.03-.27,0-.27-.03ZM729.75,63.22c.02-.38,0-.77.09-1.12.09-.36.33-.43.51-.24.09.09.18.22.19.33.05.6-.17.98-.79,1.03Z"></path>
          <path d="M317.89,62.36c1.04-1.03,2.11-2.06,3-3.23.96-1.26,1.75-2.65,2.55-4.02.73-1.25,1.73-2.47,1.98-3.83.29-1.56,1.5-2.88,1.1-4.61-.36-1.53.94-2.72.98-4.18.05-1.92.1-3.84.12-5.76,0-.42.02-.98-.22-1.25-1.17-1.35-1.72-3.02-2.58-4.53-.57-.99-1.33-1.88-1.88-2.91-.39-.74-1.15-1.36-1.88-1.83-2.45-1.56-5.41-2.05-7.84-3.67-1.32-.08-2.65-.15-3.97-.25-.43-.03-.98.02-1.27-.21-1.03-.84-2.23-.64-3.38-.68-2.95-.1-5.91-.18-8.87-.24-1.33-.03-2.81-.39-3.96.06-2.17.87-4.32.5-6.49.6-1.82.08-3.49-.24-4.96-1.3-.64-.46-1.3-.63-2.05-.63-.89,0-1.77-.03-2.66-.05,0,0,0-.02,0-.02-1.03-.02-2.07-.05-3.1-.06-.29,0-.67-.02-.84.14-1.59,1.47-3.45,2.63-4.23,4.89-.55,1.59-.7,3.41-2.15,4.65-.37.32-.34,1.07-.56,1.59-.91,2.12-1.29,4.39-1.89,6.6-.41,1.52-1.14,2.96-1.18,4.58-1.32,2.09-2.22,4.36-3.14,6.64-.65,1.6-1.38,3.21-2.35,4.63-1.09,1.59-1.39,3.48-2.29,5.11-2.23,4.04-3.94,8.33-6.03,12.43-1.06,2.08-1.4,4.37-2.5,6.42-.5.94-.21,2.31-.25,3.49-.03.89-.16,1.69-.72,2.48-.66.94-1.05,2.05-1.59,3.07-1.37,2.55-2.95,5.01-4.08,7.66-1.19,2.78-3.11,5.17-3.92,8.17-.74,2.76-2.24,5.27-3.2,7.98-.58,1.62-.88,3.41-1.67,4.86-1.73,3.17-2.89,6.6-4.63,9.76-1.32,2.41-2.59,4.84-3.88,7.27-.68,1.29.05,2.64,1.54,2.67,1.15.03,2.37.39,3.42-.4.58-.44.91.73,1.48.21.61-.55,1.37-.53,2.09-.44,1.23.14,2.31-.21,3.33-.82,1.16-.69,2.41-.95,3.76-.87,1.33.08,2.66.1,3.99.11.63,0,1.05-.24,1.24-.96.93-3.47,2.19-6.83,3.86-10.02,1.41-2.67,3.02-5.22,3.97-8.15.58-1.76,1.7-3.35,2.57-5.02,1.18-.49,1.89-1.24,1.67-2.66-.06-.38.17-.85.39-1.2,1.32-2.08,2.09-4.44,3.71-6.38.69-.83,1.16-1.94,1.51-3.08.75-2.46,1.83-4.82,3.02-7.12,1.57-3.06,3.65-5.88,4.5-9.32.16-.65.84-1.42,1.61-1.32,1.54.2,2.82-1.05,4.23-.78,1.75.34,3.08-1.04,4.68-.85,1.28.16,2.13-1.04,3.35-.83,1.51.26,2.82-.61,4.24-.74,1.46-.14,2.95,0,4.43-.04.42,0,.92-.08,1.23-.32,1.24-.97,3.02.17,4.15-1.1,1.47-.04,2.94-.07,4.4-.11,1.3-.03,2.67.29,3.79-.73,2.02.1,3.64-1.1,5.22-1.99,1.74-.98,3.52-2.05,4.94-3.59,1.3-1.41,2.79-2.64,4.16-3.99ZM226.37,131.37c-.48.08-.8-.13-.91-.57-.15-.6.33-1.14.89-1.06.47.07.73.32.71.81.06.52-.23.74-.7.82ZM237.4,128.9c-.08-.09-.16-.18-.23-.27.04-.08.09-.16.13-.23.12.09.25.18.37.27l-.27.24ZM248.99,76.57c-.15-.06-.22-.48-.19-.72.06-.42.38-.61.79-.62,0,.25.01.5-.03.74-.05.33.01.86-.58.6ZM249.66,75.14c0-.4-.02-.8.05-1.19.02-.11.35-.2.55-.23.06,0,.21.2.22.32.04.61-.17,1.04-.83,1.1ZM262.33,82.44c-.08-.1-.15-.2-.23-.29.04-.09.09-.18.13-.26.12.1.24.2.36.29-.09.09-.18.17-.26.26ZM282.13,24.64c.07-.02.17.07.25.12,0,.09-.01.17-.02.26-.17-.05-.35-.11-.52-.16.1-.07.18-.18.29-.21ZM291.86,70.57c-.09,0-.17-.17-.25-.26.05-.08.1-.16.14-.24.13.09.26.19.39.28-.1.08-.2.22-.29.22ZM301.51,49.41c-.5.54-1.15.99-1.52,1.6-.66,1.11-.86,2.59-2,3.31-2.07,1.31-4.27,2.43-6.41,3.61-.25.14-.55.35-.79.31-2.23-.35-4.23,1.09-6.46.8-1.03-.13-1.96.21-2.95.63-1.02.43-2.3.48-3.27-.55-.43-.46-.76-.9-.47-1.53.12-.26.39-.45.52-.71.71-1.41,1.83-2.8,1.98-4.27.16-1.64,1.27-2.95,1.17-4.61-.03-.52.36-1.07.58-1.6.55-1.33,1.4-2.53,1.32-4.1-.05-1.08,1.3-1.57,1-2.81,3.31.07,6.26.11,9.2.2,1.47.05,3.01-.07,4.38.36,1.36.42,1.87,2.28,3.46,2.61,1.73,1.63,1.87,4.99.27,6.73ZM304.57,25.45c-.17.21-.36.15-.5-.15-.01-.03.16-.17.27-.21.06-.02.16.07.24.11,0,.08.03.2-.01.25ZM306.12,50.56c-.67.02-1.01-.47-.84-1.15.09-.12.18-.23.27-.35.41.38.82.76,1.22,1.14-.22.12-.43.35-.66.35Z"></path>
          <path d="M480.45,109.37c-2.21-.1-4.43-.09-6.64-.12-1.28,1.06-2.8.63-4.24.7-1.45.07-2.92-.21-4.27.71-.35.24-1.23.06-1.64-.24-.85-.61-1.48-.5-2.39-.05-1.36.67-2.89.19-4.35.14-1.51-1.31-3.36-.82-5.08-.88-4.13-.14-8.27-.19-12.41-.24-1.44-.02-2.89-.27-4.28.62-.51.33-1.45.1-2.17-.02-.4-.07-.68-.45-.67-.98,0-.61.21-1.1.5-1.64,1.45-2.65,2.93-5.3,3.91-8.16.69-2.03,1.2-4.15,2.2-6.04.88-1.66,1.62-3.36,2.32-5.09.65-1.59,1.46-3.17,1.93-4.77.54-1.83,1.62-3.04,2.81-4.3.1-.1.22-.25.22-.37-.1-1.9,1.59-3.07,1.91-4.79.27-1.49.98-2.69,1.96-3.82.85-.98,1.85-2,2.25-3.18.9-2.64,2.04-5.08,3.88-7.2.17-.2.25-.55.23-.82-.15-1.75.95-3,1.65-4.42.63-1.29,1.42-2.52,1.22-4.1-.07-.53.13-1.18.4-1.65,2.19-3.74,3.49-7.91,5.67-11.66,1.07-1.85,2.11-3.75,2.7-5.85.15-.52.73-.98.36-1.57-.39-.62-.86-1.31-1.69-1.25-2,.13-4.06-.66-6,.66-.77.52-1.97-.02-2.98.5-.44.23-1.26-.37-1.93-.45-1.3-.16-2.68.07-3.75-.98-2.1-.32-3.98.11-5.86,1.19-1.57.9-2.88,1.82-3.65,3.54-1,2.23-1.91,4.52-2.46,6.87-.37,1.61-.99,2.97-1.85,4.32-1.63,2.55-3.26,5.1-4.78,7.73-3.54,6.15-5.98,12.75-8.28,19.41-.66,1.9-1.95,3.54-2.22,5.6-.07.54-.36,1.17-.76,1.54-2.45,2.29-2.67,5.74-4.46,8.36-.79,3.73-2.7,6.95-4.57,10.2-.93,1.62-1.66,3.36-2.56,5.01-.49.9-.57,1.92-.94,2.86-.47,1.19-.84,2.48-1.51,3.55-.91,1.47-2.13,2.76-3.2,4.14-.89,1.15-1.83,2.27-2.59,3.49-.6.97-.57,2.2-1.21,3.22-.34.54-.45,1.36-.63,2.04-.42,1.59-1.73,2.74-2.13,4.18-.8,2.88-2.59,5.12-4.1,7.55-.66,1.06-2.31,1.84-1.36,3.33.71,1.11,2.18.47,3.31.59.72.08,1.64.22,2.15-.13,1.24-.85,2.54-.58,3.84-.62.73-.02,1.41-.05,2.12-.4,1.37-.66,2.89-.66,4.21.08,1.28.72,2.59.29,3.88.46,1.58-1.17,3.41-.7,5.13-.68,4.87.04,9.75.19,14.62.31.74.02,1.63-.2,2.19.13,2.2,1.31,4.59.64,6.88.9.87.1,1.79.07,2.58.38,2.85,1.11,5.78.53,8.68.61,1.29-1.08,2.81-.58,4.25-.63.88-.03,1.98.34,2.62-.05,1.67-1.02,3.41-.66,4.48-.69,1.54.03,2.42.07,3.31.07,1.69,0,2.13-.27,2.68-2.2.24-.84.64-1.21,1.41-1.4.38-.09.36-.34.11-.68-.36-.47-.5-.95-.22-1.6,1.03-2.37,1.93-4.79,2.96-7.15.52-1.19.97-2.52,1.83-3.43,1.35-1.42,1.99-3.2,2.96-4.8.9-1.48,1.45-3.17,2.74-4.42.08-.08-.06-.52-.22-.68-.29-.32-.65-.79-1-.8ZM437.64,89.1c.11.02.19.18.29.29-.11.09-.22.17-.33.26l-.26-.3c.1-.09.22-.26.31-.25ZM432.99,99.6s.18.16.22.27c.02.06-.08.16-.13.24-.09,0-.21.02-.27-.03-.21-.16-.15-.35.17-.49ZM397.98,134.12c-.13-.05-.27-.07-.38-.14-.23-.16-.2-.4.09-.66.21-.19.43-.38.66-.55.25-.19.5-.09.58.29.13.63-.3,1.08-.95,1.06ZM445.64,112.97c-.23-.09-.46-.18-.69-.27.11-.16.26-.48.33-.46.35.08.69.25,1.03.39-.22.12-.44.23-.67.35ZM468.5,113.8c-.29.25-.7.38-1.08.51-.07.02-.21-.18-.39-.33.24-.31.46-.64.73-.93.26-.28.57-.3.68-.03.1.24.19.68.06.79ZM475.82,113.63c-.24-.1-.49-.2-.73-.3.12-.18.28-.53.35-.51.37.09.72.27,1.07.42-.23.13-.46.26-.69.39Z"></path>
          <path d="M553.94,112.63c-.31-.31-.67-.75-1.04-.77-2.05-.13-4.17-.54-6.12.14-1.03.35-1.97.44-2.98.43-2.66-.02-5.32-.06-7.98-.08-.73,0-1.69-.23-2.15.14-1.19.94-2.69.15-3.8.88-1.24.82-2.71.11-3.83.64-2.15,1.01-4.33.5-6.49.61-.41.02-4.12-1.41-4.41-1.62-1.87-1.35-1.83-3.53-2.22-5.44-.29-1.42-.03-2.94,0-4.42.02-1.18.05-2.36.08-3.54.03-1.03.08-2.07.12-3.1,1.2-.73-.32-2.21.81-2.96.21-1.57.23-3.1.89-4.68.59-1.4.25-3.2.25-4.82,0-2.51.07-4.97,1.71-7.09.24-.31.09-.9.31-1.24,1.03-1.62.86-3.6,1.77-5.29,1.65-3.07,3.24-6.15,5.74-8.65,1.42-2.96,4.63-4.47,6.01-7.46,2-1.71,3.66-3.77,6.01-5.13,1.5-.86,2.63-2.35,3.99-3.49,1.45-1.22,3.31-1.71,4.89-2.79,1.62-1.11,3.18-2.73,5.27-2.86,1.24-.08,2.06-1.35,3.32-.94,1.25.41,2.2-1.27,3.3-.56,1.24.81,2.14-.51,3.25-.2.69.2,1.65-.07,2.11.32,1.34,1.12,3.36-.03,4.48,1.51,1.15.04,2.23.2,3.34-.61,1.41-1.04,2.75-2,3.3-3.78.25-.81.7-1.61,1.23-2.28,2.37-2.95,4.81-5.84,7.23-8.75.39-.47.06-1.47-.6-1.67-.41-.13-.84-.26-1.26-.27-1.77-.05-3.55-.06-5.32-.09-1.63-.03-3.26,0-4.87-.15-1.57-.14-3.27.38-4.69-.81-.16-.14-.66-.13-.82.01-1.16,1.02-2.52.61-3.82.6-2.81-.03-5.62-.11-8.42-.16-.59-.01-1.28-.19-1.76.05-2.1,1.07-4.41,1.26-6.62,1.87-1.79.49-3.65.9-5.33,1.64-1.74.77-3.44,1.48-5.34,1.61-2.55,1.66-5.77,1.95-8.13,3.98-1.74.37-2.47,2.02-3.77,2.95-.82.59-2.07.63-2.49,1.67-.4.99-1.22,1.64-1.73,2.5-.6,1.01-1.37,1.87-2.02,2.81-1.55,2.23-5.32,4.06-5.94,6.83-1.41,1.16-.44,3.09-1.55,4.47-.97,1.2-3.23,2.82-3.97,4.22-1.81,3.46-3.24,5.58-5.17,8.98-1.35,2.39,1.01,6.57-.79,8.74-.76.92-1.46,2.18-1.34,3.6.03.4-.14.87-.34,1.23-.78,1.39-1.39,2.83-1.86,4.37-.41,1.37-1.08,2.66-1.52,4.02-.49,1.5-1.22,2.95-1.16,4.59-1.29,1.09-.38,2.83-1.27,4.11-.88,1.25-.38,2.86-.54,4.3-.05.43.05.99-.19,1.27-.98,1.16-.65,2.52-.71,3.81-.09,1.77-.09,3.54-.12,5.31-.01,0-.03,0-.04,0-.05,2.36-.15,4.72-.13,7.09.02,2.16,1.83,6.69,3.44,7.73,2.3,1.49,4.17,3.58,6.81,4.64,2,.81,3.81,2.08,5.76,3.04,1.54.76,3.12,1.81,4.75,1.95,3.05.26,5.92,1.48,9.07,1.33,2.09-.1,4.07-.48,5.89-1.27,2.68-1.16,5.21-2.65,8.3-2.16,2.34-1.33,4.88-.56,7.34-.67.74-.03,1.48,0,2.22-.02,2.57-.05,4.04-.96,4.62-3.54.26-1.16,1.35-1.99,1.11-3.27,1.71-4.13,3.22-8.35,6.23-11.81.46-.53.18-1.11-.26-1.55ZM499.87,121.89c-.18.23-.38.17-.52-.17-.02-.04.17-.19.28-.23.06-.02.17.08.25.12,0,.1.03.22-.01.28ZM511.8,132.96c-.71.08-1.97-.73-2-1.31,0-.07.22-.21.35-.23.72-.1,1.99.73,2.01,1.32,0,.07-.23.15-.36.23Z"></path>
          <path d="M146.36,48.24c.42-.1.87-.05,1.37-.07.59-1.14,1.27-2.25,1.76-3.44.71-1.73,1.3-3.52,2.33-5.1-.11-2.16,2.07-3.52,2-5.68,1.15-1.51,1.46-3.51,2.9-4.84.45-.42.75-.89.77-1.52.05-1.68.18-2.29-1.66-2.3-1.92,0-3.84-.05-5.76-.11-.87-.03-1.73.08-2.53-.53-.88-.67-1.99-.34-3-.38-1.17-.05-2.34.04-3.51.07-.91,1.22-1.81-.78-2.72-.02-1.03.86-2.24.5-3.4.53-1.77.04-3.53.06-5.3.09-1.13.99-2.5.68-3.81.68-1.03,0-2.07-.01-3.1-.13-1.23-.13-2.25.34-3.34.81-4.06,1.75-6.66,5.21-9.72,8.14-.44,1.51-1.76,2.3-2.78,3.34-.62.63-1.26,1.25-1.9,1.86-.98.93-1.7,2.14-1.87,3.37-.34,2.5-1.42,4.67-2.45,6.88-.97,2.09-1.26,4.4-2.13,6.53-.21.52-.24,1.13-.28,1.71-.23,3.04.05,6.09-.94,9.11-.53,1.61-.23,3.52-.16,5.28.05,1.29,1.01,2.41.79,3.8-.06.35.25.84.52,1.15,1.37,1.57,1.86,3.59,2.84,5.36.91,1.64,1.4,3.52,2.67,4.96,1.4,1.59,1.37,3.78,2.41,5.52,1.21,2.03.79,4.26.7,6.43-.01.38-.41.74-.64,1.1-.47.73-1,1.42-1.4,2.19-.75,1.45-1.7,2.71-2.94,3.77-.67.58-1.3,1.2-1.93,1.83-2.42,2.37-5.29,4.08-8.39,5.38-2.71,1.13-5.55,1.66-8.5,1.02-.74-.8-1.31-.52-1.72,0-6.29-.18-12.58-.32-18.88-.41-.39,0-.79,0-1.13.16-.44.22-.7.68-.93,1.11-3.54,6.62-6.34,13.65-8.32,20.89,2.96-.25,5.94-.51,8.89-.17,1.63.19,3.25.55,4.89.58,2.79.04,5.65-.88,8.38-.74.08.36.33.59.69.7.86.28,1.73,1.15,2.59-.1.33-.49.92-.68,1.56-.65.88.04,1.78.09,2.66.03.22-.01.53-.09.77-.18,1.41,0,2.78-.09,3.41-.06.87.04,1.75.07,2.59-.15.78-.21,1.49-.63,2.27-.83,2.2-.55,4.76.71,6.68-.5.51-.32.93-.81,1.51-1.01.59-.21,1.26-.08,1.87-.25.78-.22,1.33-.91,2.03-1.32,1.12-.65,2.51-.54,3.8-.62,3.34-.19,6.58-1.79,8.75-4.34.46-.53.88-1.15.92-1.85,0-.07-.02-.14-.03-.22,1.84-1.1,3.72-2.15,5.67-3.06.26-.12.52-.33.68-.56.41-.59.71-1.26,1.15-1.82.46-.57,1.05-1.04,1.57-1.56.51-.53,1.14-1,1.49-1.63,1.6-2.91,3.16-5.85,4.62-8.83.37-.75.28-1.66.8-2.45.7-1.08-.04-2.68,1.13-3.68.09-.07.08-.27.09-.42.04-2.07-.05-4.15.17-6.19.13-1.29-1.12-2.1-.83-3.34-.86-2.42-1.12-5.04-2.5-7.3-.98-1.6-1.98-3.16-2.77-4.9-1.18-2.62-2.43-5.24-4.29-7.52-1.28-1.57-1.71-3.67-3.08-5.24-.4-.46.01-1.44-.51-2.06-.74-.89-.1-2.12-.56-2.94-.7-1.26-1.14-2.68-.4-3.72.93-1.32.49-2.81,1.16-4.17,1.46-2.97,4.25-3.77,6.85-4.97,1.37.29,2.52-.55,3.79-.73,1.2,1.14,2.37-.31,3.63-.05,1.28.26,2.65.14,3.98.07,1.45-.07,2.91.29,4.37-.21,1.25-.43,2.37.78,3.67.46ZM102.93,57.18c-.21.23-.47.83-.93.33-.16-.17-.21-.71-.11-.79,1.11-.76.52-2.22,1.38-3.17.49,1.32.66,2.54-.34,3.63ZM122.19,75.43c.35.35.53.88.79,1.33.14.25.29.5.43.74-.25.09-.5.19-.75.28-.23-.14-.57-.23-.67-.43-.35-.68-.02-2.15.21-1.92ZM106.65,85.08c.12-.41.29-.36.62-.12.9.67,1.15,1.54.96,2.57-.03.16-.32.28-.48.41-1-.52-1.45-1.69-1.09-2.86ZM95.69,127.06c.31-.14.96.24,1,.59-.05.27-.03.59-.17.8-.64.93-1.56,1.28-2.65,1.09-.17-.03-.46-.45-.42-.5.61-.82,1.31-1.55,2.25-1.98ZM84.11,131.62c.02.05-.2.17-.32.26-.1-.11-.29-.27-.27-.31.21-.42.44-.4.58.05ZM117.95,79.21c-.16.21-.34.16-.47-.17-.01-.04.16-.18.26-.22.05-.02.15.08.22.12,0,.1.03.21-.01.27ZM135.51,45.01c-.24.09-.48.16-.73.23-.22-.13-.44-.26-.66-.39.1-.08.2-.2.32-.25.37-.13.77-.3,1.05.15.04.07.04.25.02.26Z"></path>
        </g>
        <g>
          <path d="M769.58,41.81c-1.2,1.34-2.85,1.96-3.94,3.29-.39.47-1.05.74-1.6,1.08-.26.16-.58,0-.75-.35-.29-.58-.65-1.12-.53-1.83.05-.32.02-.65,0-.98-.02-.39.15-1.66-.27-1.84-.56-.24-.87,1.06-1.21,1.38-.78.74-1.52,1.51-2.28,2.26-.17.17-.37.41-.58.43-.3.04-.63-.05-.94-.14-.2-.06-.29-.72-.19-.9.04-.07.06-.16.11-.21,1.87-1.61,3.08-3.8,4.92-5.43.29-.25.6-.22.89,0,.67.53,1.18,1.13,1.04,2.07-.14.93.22,1.74.73,2.61,1.54-1.57,3.56-2.51,5.14-4.02.28-.27.72-.35,1.04-.58.38-.27.7-.32,1.09,0,.43.36.55.81.44,1.31-.05.22-.28.4-.39.61-.42.8-.8,1.64-.57,2.54.27,1.06-.37,1.89-.6,2.8-.3,1.19-1.65,1.08-2.11.34-.12-.19-.28-.57-.21-.64.53-.5.3-1.25.66-1.81.37-.58.35-1.21.11-2.02Z"></path>
          <path d="M751.77,40.29c.49-1.02-.14-.89-.49-.9-.66-.03-1.28-.05-1.86-.47-.26-.19-.62-.25-.56-.65.07-.44.64-.89,1.04-.88.08,0,.18-.03.25,0,1.54.81,3.21.46,4.82.47.8,0,1.39.41,2.07.61.1.03.49.69.49.82,0,.13-.36.51-.44.52-.81.08-1.64-.29-2.4-.01-.38.14-.7.12-.92.6-.33.72-.95,1.31-1.27,2.03-.42.94-1.12,1.58-1.87,2.21-.3.25-.6.07-.86-.16-.25-.22-.48-.44-.11-.75.06-.05.13-.11.17-.18.61-.94,1.22-1.88,1.81-2.83.12-.2.16-.44.16-.44Z"></path>
        </g>
      </g>
    </g>
  </g>
</svg>